<svg width="26" height="26" viewBox="0 0 26 26" fill="none" xmlns="http://www.w3.org/2000/svg">
<g clip-path="url(#clip0_10605_44)">
<mask id="mask0_10605_44" style="mask-type:luminance" maskUnits="userSpaceOnUse" x="0" y="5" width="26" height="26">
<path d="M0 5H26V31H0V5Z" fill="white"/>
</mask>
<g mask="url(#mask0_10605_44)">
<path fill-rule="evenodd" clip-rule="evenodd" d="M10.6459 6.56641C11.0398 6.56641 11.3611 6.3776 11.3611 6.14616C11.3611 5.91472 11.0398 5.72596 10.6459 5.72596C10.2519 5.72596 9.93066 5.91472 9.93066 6.14616C9.93066 6.3776 10.2519 6.56641 10.6459 6.56641Z" fill="#46C66F"/>
<path fill-rule="evenodd" clip-rule="evenodd" d="M25.395 16.7955C26.8434 18.9889 20.4955 17.177 17.1875 18.2617C18.4809 17.6359 20.8472 16.5452 22.1406 15.9193L25.395 16.7955Z" fill="#51BA7B"/>
<path fill-rule="evenodd" clip-rule="evenodd" d="M1.55449 17.9906C7.79427 19.1458 13.9106 15.9994 19.3993 15.0804C19.0368 9.76425 15.524 6.53414 10.6684 6.1197C3.41432 6.56326 1.45283 11.4173 1.55449 17.9906Z" fill="#4B9C30"/>
<path fill-rule="evenodd" clip-rule="evenodd" d="M1.55449 17.9906C3.40664 18.3335 5.24792 18.2974 7.0651 18.0531C6.75267 13.287 6.33477 8.46596 10.6684 6.11968C3.41431 6.56324 1.45283 11.4173 1.55449 17.9906Z" fill="#50ED1C"/>
<path fill-rule="evenodd" clip-rule="evenodd" d="M10.5757 6.17078C6.62079 8.33381 6.52259 14.0064 7.03622 17.6211C6.73614 12.4644 7.6789 7.93973 10.5757 6.17078Z" fill="#53B88E"/>
<path fill-rule="evenodd" clip-rule="evenodd" d="M7.03618 17.6211C6.64787 13.4465 6.69107 9.0375 9.91009 6.65607C10.1167 6.4781 10.338 6.31586 10.5756 6.17078C6.31992 8.17551 6.36581 13.9239 7.03618 17.6211Z" fill="#88CF6F"/>
<path fill-rule="evenodd" clip-rule="evenodd" d="M11.1172 6.28346C15.283 7.95586 15.4971 12.1505 15.3358 14.9453C15.1332 10.9583 14.1864 7.65123 11.1172 6.28346Z" fill="#1EDC5D"/>
<path fill-rule="evenodd" clip-rule="evenodd" d="M7.06543 18.0537C9.93301 18.803 12.716 20.5646 15.6681 20.3016C19.593 19.9519 21.2232 15.9147 25.3955 16.7969L19.3997 15.081C16.0035 13.7831 11.1768 17.0628 7.06543 18.0537Z" fill="#50ED1C"/>
<path fill-rule="evenodd" clip-rule="evenodd" d="M19.0955 14.9786C15.9323 14.0378 11.6382 16.7152 7.82715 17.8477C11.5832 16.8913 15.8043 14.4865 19.0955 14.9786Z" fill="#51BA7B"/>
</g>
</g>
<defs>
<clipPath id="clip0_10605_44">
<rect width="26" height="26" fill="white"/>
</clipPath>
</defs>
</svg>
